# Blender v2.75 (sub 0) OBJ File: ''
# www.blender.org
mtllib hex.mtl
o Circle.001
v 1.865996 0.753567 -0.568788
v 1.865996 0.753567 0.431212
v 1.865996 1.753567 0.431212
v 1.865996 1.753567 -0.568788
v 0.999971 0.753567 0.931212
v 0.133946 0.753567 0.431212
v 0.133946 1.753567 0.431212
v 0.999971 1.753567 0.931212
v 0.133946 0.753567 -0.568788
v 0.999971 0.753567 -1.068788
v 0.999971 1.753567 -1.068788
v 0.133946 1.753567 -0.568788
vn 1.000000 -0.000000 0.000000
vn -0.500000 -0.000000 0.866000
vn -0.500000 0.000000 -0.866000
vn 0.500000 0.000000 -0.866000
vn 0.500000 -0.000000 0.866000
vn -1.000000 -0.000000 0.000000
vn -0.000000 1.000000 0.000000
vn 0.000000 -1.000000 0.000000
usemtl Material.002
s 1
f 1//1 3//1 2//1
f 1//1 4//1 3//1
f 5//2 7//2 6//2
f 5//2 8//2 7//2
f 9//3 11//3 10//3
f 9//3 12//3 11//3
f 10//4 4//4 1//4
f 10//4 11//4 4//4
f 2//5 8//5 5//5
f 2//5 3//5 8//5
f 6//6 12//6 9//6
f 6//6 7//6 12//6
f 12//7 7//7 8//7
f 4//7 8//7 3//7
f 12//7 4//7 11//7
f 12//7 8//7 4//7
f 10//8 1//8 9//8
f 5//8 1//8 2//8
f 9//8 5//8 6//8
f 9//8 1//8 5//8
